<svg xmlns="http://www.w3.org/2000/svg" width="1920" height="1080" viewBox="0 0 1920 1080">
  <rect width="1920" height="1080" fill="#FFFFFF"/>
  <text x="960" y="120" text-anchor="middle" font-family="Helvetica, Arial, sans-serif"
        font-size="82" font-weight="bold" fill="#141319">AI IN ACTION DAY 15 — RETRO</text>
  <text x="960" y="180" text-anchor="middle" font-family="Helvetica, Arial, sans-serif"
        font-size="36" fill="#6B6875">Quét mã để bắt đầu retro của nhóm bạn</text>
  <rect x="110" y="225" width="1700" height="2" fill="#E3E2EA"/>
  <path d="M0.00 0.00h16.97v16.97h-16.97zM16.97 0.00h16.97v16.97h-16.97zM33.94 0.00h16.97v16.97h-16.97zM50.91 0.00h16.97v16.97h-16.97zM67.88 0.00h16.97v16.97h-16.97zM84.85 0.00h16.97v16.97h-16.97zM101.82 0.00h16.97v16.97h-16.97zM135.76 0.00h16.97v16.97h-16.97zM169.70 0.00h16.97v16.97h-16.97zM186.67 0.00h16.97v16.97h-16.97zM237.58 0.00h16.97v16.97h-16.97zM339.39 0.00h16.97v16.97h-16.97zM356.36 0.00h16.97v16.97h-16.97zM407.27 0.00h16.97v16.97h-16.97zM441.21 0.00h16.97v16.97h-16.97zM458.18 0.00h16.97v16.97h-16.97zM475.15 0.00h16.97v16.97h-16.97zM492.12 0.00h16.97v16.97h-16.97zM509.09 0.00h16.97v16.97h-16.97zM526.06 0.00h16.97v16.97h-16.97zM543.03 0.00h16.97v16.97h-16.97zM0.00 16.97h16.97v16.97h-16.97zM101.82 16.97h16.97v16.97h-16.97zM169.70 16.97h16.97v16.97h-16.97zM203.64 16.97h16.97v16.97h-16.97zM220.61 16.97h16.97v16.97h-16.97zM237.58 16.97h16.97v16.97h-16.97zM271.52 16.97h16.97v16.97h-16.97zM288.48 16.97h16.97v16.97h-16.97zM305.45 16.97h16.97v16.97h-16.97zM339.39 16.97h16.97v16.97h-16.97zM390.30 16.97h16.97v16.97h-16.97zM441.21 16.97h16.97v16.97h-16.97zM543.03 16.97h16.97v16.97h-16.97zM0.00 33.94h16.97v16.97h-16.97zM33.94 33.94h16.97v16.97h-16.97zM50.91 33.94h16.97v16.97h-16.97zM67.88 33.94h16.97v16.97h-16.97zM101.82 33.94h16.97v16.97h-16.97zM135.76 33.94h16.97v16.97h-16.97zM169.70 33.94h16.97v16.97h-16.97zM237.58 33.94h16.97v16.97h-16.97zM254.55 33.94h16.97v16.97h-16.97zM288.48 33.94h16.97v16.97h-16.97zM339.39 33.94h16.97v16.97h-16.97zM407.27 33.94h16.97v16.97h-16.97zM441.21 33.94h16.97v16.97h-16.97zM475.15 33.94h16.97v16.97h-16.97zM492.12 33.94h16.97v16.97h-16.97zM509.09 33.94h16.97v16.97h-16.97zM543.03 33.94h16.97v16.97h-16.97zM0.00 50.91h16.97v16.97h-16.97zM33.94 50.91h16.97v16.97h-16.97zM50.91 50.91h16.97v16.97h-16.97zM67.88 50.91h16.97v16.97h-16.97zM101.82 50.91h16.97v16.97h-16.97zM135.76 50.91h16.97v16.97h-16.97zM152.73 50.91h16.97v16.97h-16.97zM186.67 50.91h16.97v16.97h-16.97zM254.55 50.91h16.97v16.97h-16.97zM271.52 50.91h16.97v16.97h-16.97zM322.42 50.91h16.97v16.97h-16.97zM441.21 50.91h16.97v16.97h-16.97zM475.15 50.91h16.97v16.97h-16.97zM492.12 50.91h16.97v16.97h-16.97zM509.09 50.91h16.97v16.97h-16.97zM543.03 50.91h16.97v16.97h-16.97zM0.00 67.88h16.97v16.97h-16.97zM33.94 67.88h16.97v16.97h-16.97zM50.91 67.88h16.97v16.97h-16.97zM67.88 67.88h16.97v16.97h-16.97zM101.82 67.88h16.97v16.97h-16.97zM152.73 67.88h16.97v16.97h-16.97zM169.70 67.88h16.97v16.97h-16.97zM203.64 67.88h16.97v16.97h-16.97zM220.61 67.88h16.97v16.97h-16.97zM237.58 67.88h16.97v16.97h-16.97zM288.48 67.88h16.97v16.97h-16.97zM305.45 67.88h16.97v16.97h-16.97zM339.39 67.88h16.97v16.97h-16.97zM356.36 67.88h16.97v16.97h-16.97zM373.33 67.88h16.97v16.97h-16.97zM407.27 67.88h16.97v16.97h-16.97zM441.21 67.88h16.97v16.97h-16.97zM475.15 67.88h16.97v16.97h-16.97zM492.12 67.88h16.97v16.97h-16.97zM509.09 67.88h16.97v16.97h-16.97zM543.03 67.88h16.97v16.97h-16.97zM0.00 84.85h16.97v16.97h-16.97zM101.82 84.85h16.97v16.97h-16.97zM135.76 84.85h16.97v16.97h-16.97zM186.67 84.85h16.97v16.97h-16.97zM203.64 84.85h16.97v16.97h-16.97zM254.55 84.85h16.97v16.97h-16.97zM271.52 84.85h16.97v16.97h-16.97zM339.39 84.85h16.97v16.97h-16.97zM441.21 84.85h16.97v16.97h-16.97zM543.03 84.85h16.97v16.97h-16.97zM0.00 101.82h16.97v16.97h-16.97zM16.97 101.82h16.97v16.97h-16.97zM33.94 101.82h16.97v16.97h-16.97zM50.91 101.82h16.97v16.97h-16.97zM67.88 101.82h16.97v16.97h-16.97zM84.85 101.82h16.97v16.97h-16.97zM101.82 101.82h16.97v16.97h-16.97zM135.76 101.82h16.97v16.97h-16.97zM169.70 101.82h16.97v16.97h-16.97zM203.64 101.82h16.97v16.97h-16.97zM237.58 101.82h16.97v16.97h-16.97zM271.52 101.82h16.97v16.97h-16.97zM305.45 101.82h16.97v16.97h-16.97zM339.39 101.82h16.97v16.97h-16.97zM373.33 101.82h16.97v16.97h-16.97zM407.27 101.82h16.97v16.97h-16.97zM441.21 101.82h16.97v16.97h-16.97zM458.18 101.82h16.97v16.97h-16.97zM475.15 101.82h16.97v16.97h-16.97zM492.12 101.82h16.97v16.97h-16.97zM509.09 101.82h16.97v16.97h-16.97zM526.06 101.82h16.97v16.97h-16.97zM543.03 101.82h16.97v16.97h-16.97zM135.76 118.79h16.97v16.97h-16.97zM203.64 118.79h16.97v16.97h-16.97zM237.58 118.79h16.97v16.97h-16.97zM254.55 118.79h16.97v16.97h-16.97zM288.48 118.79h16.97v16.97h-16.97zM305.45 118.79h16.97v16.97h-16.97zM322.42 118.79h16.97v16.97h-16.97zM373.33 118.79h16.97v16.97h-16.97zM390.30 118.79h16.97v16.97h-16.97zM407.27 118.79h16.97v16.97h-16.97zM0.00 135.76h16.97v16.97h-16.97zM16.97 135.76h16.97v16.97h-16.97zM50.91 135.76h16.97v16.97h-16.97zM101.82 135.76h16.97v16.97h-16.97zM118.79 135.76h16.97v16.97h-16.97zM203.64 135.76h16.97v16.97h-16.97zM237.58 135.76h16.97v16.97h-16.97zM254.55 135.76h16.97v16.97h-16.97zM322.42 135.76h16.97v16.97h-16.97zM339.39 135.76h16.97v16.97h-16.97zM356.36 135.76h16.97v16.97h-16.97zM390.30 135.76h16.97v16.97h-16.97zM424.24 135.76h16.97v16.97h-16.97zM441.21 135.76h16.97v16.97h-16.97zM458.18 135.76h16.97v16.97h-16.97zM492.12 135.76h16.97v16.97h-16.97zM509.09 135.76h16.97v16.97h-16.97zM543.03 135.76h16.97v16.97h-16.97zM16.97 152.73h16.97v16.97h-16.97zM33.94 152.73h16.97v16.97h-16.97zM67.88 152.73h16.97v16.97h-16.97zM84.85 152.73h16.97v16.97h-16.97zM118.79 152.73h16.97v16.97h-16.97zM169.70 152.73h16.97v16.97h-16.97zM203.64 152.73h16.97v16.97h-16.97zM254.55 152.73h16.97v16.97h-16.97zM356.36 152.73h16.97v16.97h-16.97zM390.30 152.73h16.97v16.97h-16.97zM441.21 152.73h16.97v16.97h-16.97zM458.18 152.73h16.97v16.97h-16.97zM509.09 152.73h16.97v16.97h-16.97zM543.03 152.73h16.97v16.97h-16.97zM0.00 169.70h16.97v16.97h-16.97zM16.97 169.70h16.97v16.97h-16.97zM50.91 169.70h16.97v16.97h-16.97zM67.88 169.70h16.97v16.97h-16.97zM84.85 169.70h16.97v16.97h-16.97zM101.82 169.70h16.97v16.97h-16.97zM118.79 169.70h16.97v16.97h-16.97zM152.73 169.70h16.97v16.97h-16.97zM203.64 169.70h16.97v16.97h-16.97zM254.55 169.70h16.97v16.97h-16.97zM390.30 169.70h16.97v16.97h-16.97zM407.27 169.70h16.97v16.97h-16.97zM424.24 169.70h16.97v16.97h-16.97zM458.18 169.70h16.97v16.97h-16.97zM475.15 169.70h16.97v16.97h-16.97zM526.06 169.70h16.97v16.97h-16.97zM16.97 186.67h16.97v16.97h-16.97zM50.91 186.67h16.97v16.97h-16.97zM84.85 186.67h16.97v16.97h-16.97zM254.55 186.67h16.97v16.97h-16.97zM271.52 186.67h16.97v16.97h-16.97zM305.45 186.67h16.97v16.97h-16.97zM322.42 186.67h16.97v16.97h-16.97zM373.33 186.67h16.97v16.97h-16.97zM407.27 186.67h16.97v16.97h-16.97zM441.21 186.67h16.97v16.97h-16.97zM458.18 186.67h16.97v16.97h-16.97zM475.15 186.67h16.97v16.97h-16.97zM492.12 186.67h16.97v16.97h-16.97zM509.09 186.67h16.97v16.97h-16.97zM526.06 186.67h16.97v16.97h-16.97zM543.03 186.67h16.97v16.97h-16.97zM0.00 203.64h16.97v16.97h-16.97zM67.88 203.64h16.97v16.97h-16.97zM101.82 203.64h16.97v16.97h-16.97zM152.73 203.64h16.97v16.97h-16.97zM220.61 203.64h16.97v16.97h-16.97zM288.48 203.64h16.97v16.97h-16.97zM322.42 203.64h16.97v16.97h-16.97zM339.39 203.64h16.97v16.97h-16.97zM390.30 203.64h16.97v16.97h-16.97zM407.27 203.64h16.97v16.97h-16.97zM424.24 203.64h16.97v16.97h-16.97zM441.21 203.64h16.97v16.97h-16.97zM492.12 203.64h16.97v16.97h-16.97zM543.03 203.64h16.97v16.97h-16.97zM33.94 220.61h16.97v16.97h-16.97zM67.88 220.61h16.97v16.97h-16.97zM84.85 220.61h16.97v16.97h-16.97zM152.73 220.61h16.97v16.97h-16.97zM169.70 220.61h16.97v16.97h-16.97zM220.61 220.61h16.97v16.97h-16.97zM237.58 220.61h16.97v16.97h-16.97zM288.48 220.61h16.97v16.97h-16.97zM322.42 220.61h16.97v16.97h-16.97zM373.33 220.61h16.97v16.97h-16.97zM390.30 220.61h16.97v16.97h-16.97zM407.27 220.61h16.97v16.97h-16.97zM441.21 220.61h16.97v16.97h-16.97zM458.18 220.61h16.97v16.97h-16.97zM475.15 220.61h16.97v16.97h-16.97zM492.12 220.61h16.97v16.97h-16.97zM509.09 220.61h16.97v16.97h-16.97zM543.03 220.61h16.97v16.97h-16.97zM0.00 237.58h16.97v16.97h-16.97zM16.97 237.58h16.97v16.97h-16.97zM33.94 237.58h16.97v16.97h-16.97zM101.82 237.58h16.97v16.97h-16.97zM203.64 237.58h16.97v16.97h-16.97zM220.61 237.58h16.97v16.97h-16.97zM254.55 237.58h16.97v16.97h-16.97zM322.42 237.58h16.97v16.97h-16.97zM339.39 237.58h16.97v16.97h-16.97zM407.27 237.58h16.97v16.97h-16.97zM424.24 237.58h16.97v16.97h-16.97zM492.12 237.58h16.97v16.97h-16.97zM509.09 237.58h16.97v16.97h-16.97zM526.06 237.58h16.97v16.97h-16.97zM543.03 237.58h16.97v16.97h-16.97zM50.91 254.55h16.97v16.97h-16.97zM84.85 254.55h16.97v16.97h-16.97zM118.79 254.55h16.97v16.97h-16.97zM135.76 254.55h16.97v16.97h-16.97zM203.64 254.55h16.97v16.97h-16.97zM254.55 254.55h16.97v16.97h-16.97zM288.48 254.55h16.97v16.97h-16.97zM305.45 254.55h16.97v16.97h-16.97zM339.39 254.55h16.97v16.97h-16.97zM356.36 254.55h16.97v16.97h-16.97zM373.33 254.55h16.97v16.97h-16.97zM390.30 254.55h16.97v16.97h-16.97zM424.24 254.55h16.97v16.97h-16.97zM475.15 254.55h16.97v16.97h-16.97zM509.09 254.55h16.97v16.97h-16.97zM0.00 271.52h16.97v16.97h-16.97zM16.97 271.52h16.97v16.97h-16.97zM33.94 271.52h16.97v16.97h-16.97zM67.88 271.52h16.97v16.97h-16.97zM84.85 271.52h16.97v16.97h-16.97zM101.82 271.52h16.97v16.97h-16.97zM118.79 271.52h16.97v16.97h-16.97zM135.76 271.52h16.97v16.97h-16.97zM152.73 271.52h16.97v16.97h-16.97zM203.64 271.52h16.97v16.97h-16.97zM305.45 271.52h16.97v16.97h-16.97zM322.42 271.52h16.97v16.97h-16.97zM339.39 271.52h16.97v16.97h-16.97zM356.36 271.52h16.97v16.97h-16.97zM458.18 271.52h16.97v16.97h-16.97zM475.15 271.52h16.97v16.97h-16.97zM492.12 271.52h16.97v16.97h-16.97zM509.09 271.52h16.97v16.97h-16.97zM543.03 271.52h16.97v16.97h-16.97zM16.97 288.48h16.97v16.97h-16.97zM33.94 288.48h16.97v16.97h-16.97zM67.88 288.48h16.97v16.97h-16.97zM84.85 288.48h16.97v16.97h-16.97zM118.79 288.48h16.97v16.97h-16.97zM135.76 288.48h16.97v16.97h-16.97zM169.70 288.48h16.97v16.97h-16.97zM186.67 288.48h16.97v16.97h-16.97zM220.61 288.48h16.97v16.97h-16.97zM288.48 288.48h16.97v16.97h-16.97zM322.42 288.48h16.97v16.97h-16.97zM373.33 288.48h16.97v16.97h-16.97zM407.27 288.48h16.97v16.97h-16.97zM441.21 288.48h16.97v16.97h-16.97zM458.18 288.48h16.97v16.97h-16.97zM475.15 288.48h16.97v16.97h-16.97zM509.09 288.48h16.97v16.97h-16.97zM526.06 288.48h16.97v16.97h-16.97zM543.03 288.48h16.97v16.97h-16.97zM33.94 305.45h16.97v16.97h-16.97zM50.91 305.45h16.97v16.97h-16.97zM67.88 305.45h16.97v16.97h-16.97zM101.82 305.45h16.97v16.97h-16.97zM135.76 305.45h16.97v16.97h-16.97zM152.73 305.45h16.97v16.97h-16.97zM169.70 305.45h16.97v16.97h-16.97zM186.67 305.45h16.97v16.97h-16.97zM220.61 305.45h16.97v16.97h-16.97zM237.58 305.45h16.97v16.97h-16.97zM271.52 305.45h16.97v16.97h-16.97zM288.48 305.45h16.97v16.97h-16.97zM305.45 305.45h16.97v16.97h-16.97zM356.36 305.45h16.97v16.97h-16.97zM373.33 305.45h16.97v16.97h-16.97zM424.24 305.45h16.97v16.97h-16.97zM441.21 305.45h16.97v16.97h-16.97zM458.18 305.45h16.97v16.97h-16.97zM475.15 305.45h16.97v16.97h-16.97zM509.09 305.45h16.97v16.97h-16.97zM543.03 305.45h16.97v16.97h-16.97zM0.00 322.42h16.97v16.97h-16.97zM33.94 322.42h16.97v16.97h-16.97zM50.91 322.42h16.97v16.97h-16.97zM152.73 322.42h16.97v16.97h-16.97zM203.64 322.42h16.97v16.97h-16.97zM220.61 322.42h16.97v16.97h-16.97zM271.52 322.42h16.97v16.97h-16.97zM322.42 322.42h16.97v16.97h-16.97zM373.33 322.42h16.97v16.97h-16.97zM390.30 322.42h16.97v16.97h-16.97zM407.27 322.42h16.97v16.97h-16.97zM424.24 322.42h16.97v16.97h-16.97zM441.21 322.42h16.97v16.97h-16.97zM475.15 322.42h16.97v16.97h-16.97zM492.12 322.42h16.97v16.97h-16.97zM509.09 322.42h16.97v16.97h-16.97zM543.03 322.42h16.97v16.97h-16.97zM0.00 339.39h16.97v16.97h-16.97zM33.94 339.39h16.97v16.97h-16.97zM50.91 339.39h16.97v16.97h-16.97zM67.88 339.39h16.97v16.97h-16.97zM84.85 339.39h16.97v16.97h-16.97zM101.82 339.39h16.97v16.97h-16.97zM118.79 339.39h16.97v16.97h-16.97zM169.70 339.39h16.97v16.97h-16.97zM186.67 339.39h16.97v16.97h-16.97zM203.64 339.39h16.97v16.97h-16.97zM220.61 339.39h16.97v16.97h-16.97zM254.55 339.39h16.97v16.97h-16.97zM271.52 339.39h16.97v16.97h-16.97zM288.48 339.39h16.97v16.97h-16.97zM305.45 339.39h16.97v16.97h-16.97zM356.36 339.39h16.97v16.97h-16.97zM441.21 339.39h16.97v16.97h-16.97zM475.15 339.39h16.97v16.97h-16.97zM492.12 339.39h16.97v16.97h-16.97zM509.09 339.39h16.97v16.97h-16.97zM33.94 356.36h16.97v16.97h-16.97zM67.88 356.36h16.97v16.97h-16.97zM135.76 356.36h16.97v16.97h-16.97zM186.67 356.36h16.97v16.97h-16.97zM203.64 356.36h16.97v16.97h-16.97zM254.55 356.36h16.97v16.97h-16.97zM271.52 356.36h16.97v16.97h-16.97zM288.48 356.36h16.97v16.97h-16.97zM305.45 356.36h16.97v16.97h-16.97zM322.42 356.36h16.97v16.97h-16.97zM339.39 356.36h16.97v16.97h-16.97zM356.36 356.36h16.97v16.97h-16.97zM373.33 356.36h16.97v16.97h-16.97zM424.24 356.36h16.97v16.97h-16.97zM509.09 356.36h16.97v16.97h-16.97zM543.03 356.36h16.97v16.97h-16.97zM16.97 373.33h16.97v16.97h-16.97zM67.88 373.33h16.97v16.97h-16.97zM101.82 373.33h16.97v16.97h-16.97zM118.79 373.33h16.97v16.97h-16.97zM169.70 373.33h16.97v16.97h-16.97zM203.64 373.33h16.97v16.97h-16.97zM237.58 373.33h16.97v16.97h-16.97zM254.55 373.33h16.97v16.97h-16.97zM271.52 373.33h16.97v16.97h-16.97zM288.48 373.33h16.97v16.97h-16.97zM322.42 373.33h16.97v16.97h-16.97zM339.39 373.33h16.97v16.97h-16.97zM407.27 373.33h16.97v16.97h-16.97zM424.24 373.33h16.97v16.97h-16.97zM458.18 373.33h16.97v16.97h-16.97zM509.09 373.33h16.97v16.97h-16.97zM0.00 390.30h16.97v16.97h-16.97zM16.97 390.30h16.97v16.97h-16.97zM33.94 390.30h16.97v16.97h-16.97zM50.91 390.30h16.97v16.97h-16.97zM67.88 390.30h16.97v16.97h-16.97zM84.85 390.30h16.97v16.97h-16.97zM118.79 390.30h16.97v16.97h-16.97zM135.76 390.30h16.97v16.97h-16.97zM152.73 390.30h16.97v16.97h-16.97zM169.70 390.30h16.97v16.97h-16.97zM203.64 390.30h16.97v16.97h-16.97zM237.58 390.30h16.97v16.97h-16.97zM271.52 390.30h16.97v16.97h-16.97zM288.48 390.30h16.97v16.97h-16.97zM322.42 390.30h16.97v16.97h-16.97zM339.39 390.30h16.97v16.97h-16.97zM356.36 390.30h16.97v16.97h-16.97zM373.33 390.30h16.97v16.97h-16.97zM424.24 390.30h16.97v16.97h-16.97zM441.21 390.30h16.97v16.97h-16.97zM475.15 390.30h16.97v16.97h-16.97zM492.12 390.30h16.97v16.97h-16.97zM0.00 407.27h16.97v16.97h-16.97zM33.94 407.27h16.97v16.97h-16.97zM67.88 407.27h16.97v16.97h-16.97zM84.85 407.27h16.97v16.97h-16.97zM101.82 407.27h16.97v16.97h-16.97zM169.70 407.27h16.97v16.97h-16.97zM254.55 407.27h16.97v16.97h-16.97zM288.48 407.27h16.97v16.97h-16.97zM322.42 407.27h16.97v16.97h-16.97zM339.39 407.27h16.97v16.97h-16.97zM356.36 407.27h16.97v16.97h-16.97zM407.27 407.27h16.97v16.97h-16.97zM424.24 407.27h16.97v16.97h-16.97zM441.21 407.27h16.97v16.97h-16.97zM458.18 407.27h16.97v16.97h-16.97zM475.15 407.27h16.97v16.97h-16.97zM543.03 407.27h16.97v16.97h-16.97zM186.67 424.24h16.97v16.97h-16.97zM203.64 424.24h16.97v16.97h-16.97zM220.61 424.24h16.97v16.97h-16.97zM254.55 424.24h16.97v16.97h-16.97zM271.52 424.24h16.97v16.97h-16.97zM288.48 424.24h16.97v16.97h-16.97zM407.27 424.24h16.97v16.97h-16.97zM475.15 424.24h16.97v16.97h-16.97zM543.03 424.24h16.97v16.97h-16.97zM0.00 441.21h16.97v16.97h-16.97zM16.97 441.21h16.97v16.97h-16.97zM33.94 441.21h16.97v16.97h-16.97zM50.91 441.21h16.97v16.97h-16.97zM67.88 441.21h16.97v16.97h-16.97zM84.85 441.21h16.97v16.97h-16.97zM101.82 441.21h16.97v16.97h-16.97zM135.76 441.21h16.97v16.97h-16.97zM152.73 441.21h16.97v16.97h-16.97zM237.58 441.21h16.97v16.97h-16.97zM254.55 441.21h16.97v16.97h-16.97zM271.52 441.21h16.97v16.97h-16.97zM288.48 441.21h16.97v16.97h-16.97zM305.45 441.21h16.97v16.97h-16.97zM322.42 441.21h16.97v16.97h-16.97zM339.39 441.21h16.97v16.97h-16.97zM373.33 441.21h16.97v16.97h-16.97zM407.27 441.21h16.97v16.97h-16.97zM441.21 441.21h16.97v16.97h-16.97zM475.15 441.21h16.97v16.97h-16.97zM509.09 441.21h16.97v16.97h-16.97zM0.00 458.18h16.97v16.97h-16.97zM101.82 458.18h16.97v16.97h-16.97zM152.73 458.18h16.97v16.97h-16.97zM169.70 458.18h16.97v16.97h-16.97zM186.67 458.18h16.97v16.97h-16.97zM254.55 458.18h16.97v16.97h-16.97zM305.45 458.18h16.97v16.97h-16.97zM339.39 458.18h16.97v16.97h-16.97zM356.36 458.18h16.97v16.97h-16.97zM407.27 458.18h16.97v16.97h-16.97zM475.15 458.18h16.97v16.97h-16.97zM492.12 458.18h16.97v16.97h-16.97zM509.09 458.18h16.97v16.97h-16.97zM526.06 458.18h16.97v16.97h-16.97zM0.00 475.15h16.97v16.97h-16.97zM33.94 475.15h16.97v16.97h-16.97zM50.91 475.15h16.97v16.97h-16.97zM67.88 475.15h16.97v16.97h-16.97zM101.82 475.15h16.97v16.97h-16.97zM169.70 475.15h16.97v16.97h-16.97zM237.58 475.15h16.97v16.97h-16.97zM271.52 475.15h16.97v16.97h-16.97zM288.48 475.15h16.97v16.97h-16.97zM305.45 475.15h16.97v16.97h-16.97zM322.42 475.15h16.97v16.97h-16.97zM339.39 475.15h16.97v16.97h-16.97zM407.27 475.15h16.97v16.97h-16.97zM424.24 475.15h16.97v16.97h-16.97zM441.21 475.15h16.97v16.97h-16.97zM458.18 475.15h16.97v16.97h-16.97zM475.15 475.15h16.97v16.97h-16.97zM526.06 475.15h16.97v16.97h-16.97zM543.03 475.15h16.97v16.97h-16.97zM0.00 492.12h16.97v16.97h-16.97zM33.94 492.12h16.97v16.97h-16.97zM50.91 492.12h16.97v16.97h-16.97zM67.88 492.12h16.97v16.97h-16.97zM101.82 492.12h16.97v16.97h-16.97zM135.76 492.12h16.97v16.97h-16.97zM152.73 492.12h16.97v16.97h-16.97zM169.70 492.12h16.97v16.97h-16.97zM186.67 492.12h16.97v16.97h-16.97zM203.64 492.12h16.97v16.97h-16.97zM271.52 492.12h16.97v16.97h-16.97zM288.48 492.12h16.97v16.97h-16.97zM339.39 492.12h16.97v16.97h-16.97zM356.36 492.12h16.97v16.97h-16.97zM390.30 492.12h16.97v16.97h-16.97zM424.24 492.12h16.97v16.97h-16.97zM458.18 492.12h16.97v16.97h-16.97zM492.12 492.12h16.97v16.97h-16.97zM0.00 509.09h16.97v16.97h-16.97zM33.94 509.09h16.97v16.97h-16.97zM50.91 509.09h16.97v16.97h-16.97zM67.88 509.09h16.97v16.97h-16.97zM101.82 509.09h16.97v16.97h-16.97zM152.73 509.09h16.97v16.97h-16.97zM220.61 509.09h16.97v16.97h-16.97zM237.58 509.09h16.97v16.97h-16.97zM254.55 509.09h16.97v16.97h-16.97zM271.52 509.09h16.97v16.97h-16.97zM305.45 509.09h16.97v16.97h-16.97zM339.39 509.09h16.97v16.97h-16.97zM458.18 509.09h16.97v16.97h-16.97zM475.15 509.09h16.97v16.97h-16.97zM492.12 509.09h16.97v16.97h-16.97zM543.03 509.09h16.97v16.97h-16.97zM0.00 526.06h16.97v16.97h-16.97zM101.82 526.06h16.97v16.97h-16.97zM135.76 526.06h16.97v16.97h-16.97zM169.70 526.06h16.97v16.97h-16.97zM220.61 526.06h16.97v16.97h-16.97zM288.48 526.06h16.97v16.97h-16.97zM305.45 526.06h16.97v16.97h-16.97zM373.33 526.06h16.97v16.97h-16.97zM407.27 526.06h16.97v16.97h-16.97zM424.24 526.06h16.97v16.97h-16.97zM475.15 526.06h16.97v16.97h-16.97zM492.12 526.06h16.97v16.97h-16.97zM0.00 543.03h16.97v16.97h-16.97zM16.97 543.03h16.97v16.97h-16.97zM33.94 543.03h16.97v16.97h-16.97zM50.91 543.03h16.97v16.97h-16.97zM67.88 543.03h16.97v16.97h-16.97zM84.85 543.03h16.97v16.97h-16.97zM101.82 543.03h16.97v16.97h-16.97zM135.76 543.03h16.97v16.97h-16.97zM152.73 543.03h16.97v16.97h-16.97zM169.70 543.03h16.97v16.97h-16.97zM288.48 543.03h16.97v16.97h-16.97zM356.36 543.03h16.97v16.97h-16.97zM373.33 543.03h16.97v16.97h-16.97zM458.18 543.03h16.97v16.97h-16.97zM492.12 543.03h16.97v16.97h-16.97zM526.06 543.03h16.97v16.97h-16.97z" fill="#141319" transform="translate(190 300)"/>
  <text x="470" y="912" text-anchor="middle"
        font-family="Helvetica, Arial, sans-serif" font-size="30" fill="#6B6875">Không quét được thì gõ</text>
  <text x="470" y="968" text-anchor="middle"
        font-family="Helvetica, Arial, sans-serif" font-size="46" font-weight="bold"
        fill="#4F3FD6">tinyurl.com/retroday15</text>
  <text x="470" y="1010" text-anchor="middle"
        font-family="Helvetica, Arial, sans-serif" font-size="23"
        fill="#6B6875">hoặc ai-in-action-retro-day.van-nh120802.workers.dev</text>
  
    <text x="900" y="330" font-family="Helvetica, Arial, sans-serif" font-size="64"
          font-weight="bold" fill="#4F3FD6">1</text>
    <text x="970" y="330" font-family="Helvetica, Arial, sans-serif" font-size="52"
          font-weight="bold" fill="#141319">Đăng nhập</text>
    <text x="970" y="382" font-family="Helvetica, Arial, sans-serif" font-size="33"
          fill="#6B6875">Chưa có tài khoản thì bấm “Tạo tài khoản mới”.</text>
    <text x="900" y="520" font-family="Helvetica, Arial, sans-serif" font-size="64"
          font-weight="bold" fill="#4F3FD6">2</text>
    <text x="970" y="520" font-family="Helvetica, Arial, sans-serif" font-size="52"
          font-weight="bold" fill="#141319">Chọn phòng của bạn</text>
    <text x="970" y="572" font-family="Helvetica, Arial, sans-serif" font-size="33"
          fill="#6B6875">Đúng phòng đang ngồi: D303, D304, D305, E402, E403.</text>
    <text x="900" y="710" font-family="Helvetica, Arial, sans-serif" font-size="64"
          font-weight="bold" fill="#4F3FD6">3</text>
    <text x="970" y="710" font-family="Helvetica, Arial, sans-serif" font-size="52"
          font-weight="bold" fill="#141319">Tạo nhóm hoặc vào nhóm</text>
    <text x="970" y="762" font-family="Helvetica, Arial, sans-serif" font-size="33"
          fill="#6B6875">Một bạn bấm tạo, cả bàn chọn đúng tên nhóm đó.</text>
</svg>